<?xml version="1.0" encoding="UTF-8"?><svg id="Layer_2" xmlns="http://www.w3.org/2000/svg" viewBox="0 0 218.68 26.09"><defs><style>.cls-1{fill:#323232;}</style></defs><g id="Layer_2-2"><path class="cls-1" d="m156.41,9.5c13.11-7.09,29.8-5.95,42.57,1.37-14.08-4.64-28.27-5.73-42.57-1.37h0Z"/><path class="cls-1" d="m37.15,20.28C51.31,7.38,69.27,1.14,88.11,6.42c7.59,2.13,13.82,7.32,20.91,10.45,9.41,3.96,20.19,3.72,29.87.7,4.92-1.5,9.67-3.68,14.55-5.54,0,0,.08.18.08.18-4.59,2.46-9.17,4.98-14.12,6.85-9.87,3.79-21.44,4.06-31.15-.47-7.28-3.33-12.79-9.05-20.35-11.52-12.45-3.96-25.89-.02-37.28,5.44-4.62,2.28-9.03,5.01-13.35,7.94,0,0-.12-.16-.12-.16h0Z"/><path class="cls-1" d="m106.48,16.69c-7.85,4.65-16.49,8.56-25.76,9.01-9.17.49-18.54-1.65-26.56-6.06,10.62,3.58,21.99,5.4,33.05,3.26,6.68-1.19,12.87-3.89,19.27-6.2h0Z"/><path class="cls-1" d="m218.68,10.45c-10.61,9.9-25.07,16.49-39.84,15.56-4.84-.2-9.75-.84-14.32-2.67-4.56-1.69-8.67-4.49-12.82-6.9-4.1-2.45-8.51-4.12-13.14-4.93-4.64-.86-9.43-.91-14.11-.29-4.71.62-9.31,2.07-13.86,3.72l-.08-.18c12.92-7.24,29.51-8.4,42.15.07,4.13,2.53,7.91,5.48,12.29,7.51,13.33,6.37,28.76,1.6,41.25-4.62,4.25-2.2,8.34-4.72,12.36-7.42,0,0,.12.16.12.16h0Z"/><path class="cls-1" d="m53.33,9.83c-6.53-2.36-12.81-5.21-19.61-6.53C22.46.95,10.82,2.75,0,6.41,8.19,1.92,17.78-.22,27.12.39c9.47.57,18.18,4.73,26.2,9.44h0Z"/><path class="cls-1" d="m164.39,15.76c-8.73-5.94-18.11-10.88-28.34-13.57-5.09-1.33-10.42-1.86-15.66-1.24-1.61.27-3.58.59-5.14,1.12-5.69,1.6-10.38,5.1-15.36,8.31-8.06,5.61-17.85,7.87-27.59,6.34-4.77-.72-9.33-2.3-13.58-4.4l.08-.19c4.49,1.49,9.05,2.66,13.68,3.02,4.62.36,9.3.08,13.76-.95,9.33-1.84,16.35-8.98,25.32-11.98,9.14-2.88,19-2.82,28.29-.65,6.95,1.85,13.4,5.26,19.16,9.49,1.9,1.43,3.74,2.93,5.49,4.54,0,0-.12.16-.12.16h0Z"/></g></svg>