<?xml version="1.0" encoding="UTF-8"?><svg id="Layer_2" xmlns="http://www.w3.org/2000/svg" viewBox="0 0 218.68 51.13"><defs><style>.cls-1{fill:#fff;}</style></defs><g id="Layer_2-2"><path class="cls-1" d="m36.65,13.67c-.82.29-2.44.78-4.35.78-2.14,0-3.91-.55-5.29-1.87-1.22-1.18-1.97-3.07-1.97-5.27.02-4.22,2.92-7.31,7.66-7.31,1.64,0,2.92.36,3.53.65l-.44,1.49c-.76-.34-1.7-.61-3.13-.61-3.44,0-5.69,2.14-5.69,5.69s2.16,5.71,5.46,5.71c1.2,0,2.02-.17,2.44-.38v-4.22h-2.88v-1.47h4.66v6.8Z"/><path class="cls-1" d="m39.39,7.31c0-1.2-.02-2.23-.08-3.17h1.62l.06,2h.08c.46-1.37,1.57-2.23,2.81-2.23.21,0,.36.02.52.06v1.74c-.19-.04-.38-.06-.63-.06-1.3,0-2.23.99-2.48,2.37-.04.25-.08.55-.08.86v5.42h-1.83v-6.99Z"/><path class="cls-1" d="m47.07,9.55c.04,2.5,1.64,3.53,3.49,3.53,1.32,0,2.12-.23,2.81-.52l.31,1.32c-.65.29-1.76.63-3.38.63-3.13,0-5-2.06-5-5.12s1.81-5.48,4.77-5.48c3.32,0,4.2,2.92,4.2,4.79,0,.38-.04.67-.06.86h-7.14Zm5.42-1.32c.02-1.18-.48-3-2.56-3-1.87,0-2.69,1.72-2.83,3h5.4Z"/><path class="cls-1" d="m57.59,9.55c.04,2.5,1.64,3.53,3.49,3.53,1.32,0,2.12-.23,2.81-.52l.31,1.32c-.65.29-1.76.63-3.38.63-3.13,0-5-2.06-5-5.12s1.81-5.48,4.77-5.48c3.32,0,4.2,2.92,4.2,4.79,0,.38-.04.67-.06.86h-7.14Zm5.42-1.32c.02-1.18-.48-3-2.56-3-1.87,0-2.69,1.72-2.83,3h5.4Z"/><path class="cls-1" d="m67.09,6.89c0-1.05-.02-1.91-.08-2.75h1.64l.1,1.68h.04c.5-.97,1.68-1.91,3.36-1.91,1.41,0,3.59.84,3.59,4.33v6.07h-1.85v-5.86c0-1.64-.61-3-2.35-3-1.22,0-2.16.86-2.48,1.89-.08.23-.13.55-.13.86v6.11h-1.85v-7.41Z"/><path class="cls-1" d="m84.81,14.3L81.22.15h1.93l1.68,7.16c.42,1.76.8,3.53,1.05,4.89h.04c.23-1.41.67-3.09,1.15-4.91l1.89-7.14h1.91l1.72,7.18c.4,1.68.78,3.36.99,4.85h.04c.29-1.55.69-3.13,1.13-4.89l1.87-7.14h1.87l-4.01,14.15h-1.91l-1.78-7.37c-.44-1.81-.73-3.19-.92-4.62h-.04c-.25,1.41-.57,2.79-1.09,4.62l-2.02,7.37h-1.91Z"/><path class="cls-1" d="m105.14,14.3l-.15-1.28h-.06c-.57.8-1.66,1.51-3.11,1.51-2.06,0-3.11-1.45-3.11-2.92,0-2.46,2.18-3.8,6.11-3.78v-.21c0-.84-.23-2.35-2.31-2.35-.94,0-1.93.29-2.65.76l-.42-1.22c.84-.55,2.06-.9,3.34-.9,3.11,0,3.86,2.12,3.86,4.16v3.8c0,.88.04,1.74.17,2.44h-1.68Zm-.27-5.19c-2.02-.04-4.3.31-4.3,2.29,0,1.2.8,1.76,1.74,1.76,1.32,0,2.16-.84,2.46-1.7.06-.19.1-.4.1-.59v-1.76Z"/><path class="cls-1" d="m110.18,4.14l1.99,5.71c.34.92.61,1.76.82,2.6h.06c.23-.84.53-1.68.86-2.6l1.97-5.71h1.93l-3.99,10.16h-1.76l-3.86-10.16h1.97Z"/><path class="cls-1" d="m120.38,9.55c.04,2.5,1.64,3.53,3.49,3.53,1.32,0,2.12-.23,2.81-.52l.31,1.32c-.65.29-1.76.63-3.38.63-3.13,0-5-2.06-5-5.12s1.81-5.48,4.77-5.48c3.32,0,4.2,2.92,4.2,4.79,0,.38-.04.67-.06.86h-7.14Zm5.42-1.32c.02-1.18-.48-3-2.56-3-1.87,0-2.69,1.72-2.83,3h5.4Z"/><path class="cls-1" d="m134.39.34c1.11-.17,2.44-.29,3.88-.29,2.62,0,4.49.61,5.73,1.76,1.26,1.15,1.99,2.79,1.99,5.08s-.71,4.2-2.04,5.5c-1.32,1.32-3.51,2.04-6.26,2.04-1.3,0-2.39-.06-3.32-.17V.34Zm1.83,12.51c.46.08,1.13.1,1.85.1,3.91,0,6.03-2.18,6.03-6,.02-3.34-1.87-5.46-5.73-5.46-.94,0-1.66.08-2.14.19v11.17Z"/><path class="cls-1" d="m149.42,9.55c.04,2.5,1.64,3.53,3.49,3.53,1.32,0,2.12-.23,2.81-.52l.31,1.32c-.65.29-1.76.63-3.38.63-3.13,0-5-2.06-5-5.12s1.81-5.48,4.77-5.48c3.32,0,4.2,2.92,4.2,4.79,0,.38-.04.67-.06.86h-7.14Zm5.42-1.32c.02-1.18-.48-3-2.56-3-1.87,0-2.69,1.72-2.83,3h5.4Z"/><path class="cls-1" d="m158.67,12.41c.55.36,1.51.74,2.44.74,1.34,0,1.97-.67,1.97-1.51,0-.88-.53-1.37-1.89-1.87-1.83-.65-2.69-1.66-2.69-2.88,0-1.64,1.32-2.98,3.51-2.98,1.03,0,1.93.29,2.5.63l-.46,1.34c-.4-.25-1.13-.59-2.08-.59-1.09,0-1.7.63-1.7,1.39,0,.84.61,1.22,1.93,1.72,1.76.67,2.67,1.55,2.67,3.07,0,1.78-1.39,3.04-3.8,3.04-1.11,0-2.14-.27-2.86-.69l.46-1.41Z"/><path class="cls-1" d="m169.29,1.28c.02.63-.44,1.13-1.18,1.13-.65,0-1.11-.5-1.11-1.13s.48-1.15,1.15-1.15,1.13.5,1.13,1.15Zm-2.06,13.02V4.14h1.85v10.16h-1.85Z"/><path class="cls-1" d="m180.9,4.14c-.04.74-.08,1.55-.08,2.79v5.9c0,2.33-.46,3.76-1.45,4.64-.99.92-2.41,1.22-3.7,1.22s-2.56-.29-3.38-.84l.46-1.41c.67.42,1.72.8,2.98.8,1.89,0,3.28-.99,3.28-3.55v-1.13h-.04c-.57.94-1.66,1.7-3.23,1.7-2.52,0-4.33-2.14-4.33-4.96,0-3.44,2.25-5.4,4.58-5.4,1.76,0,2.73.92,3.17,1.76h.04l.08-1.53h1.62Zm-1.91,4.01c0-.32-.02-.59-.1-.84-.34-1.07-1.24-1.95-2.58-1.95-1.76,0-3.02,1.49-3.02,3.84,0,1.99,1.01,3.65,3,3.65,1.13,0,2.16-.71,2.56-1.89.1-.32.15-.67.15-.99v-1.83Z"/><path class="cls-1" d="m183.76,6.89c0-1.05-.02-1.91-.08-2.75h1.64l.11,1.68h.04c.5-.97,1.68-1.91,3.36-1.91,1.41,0,3.59.84,3.59,4.33v6.07h-1.85v-5.86c0-1.64-.61-3-2.35-3-1.22,0-2.16.86-2.48,1.89-.08.23-.13.55-.13.86v6.11h-1.85v-7.41Z"/><path class="cls-1" d="m156.41,34.54c13.11-7.09,29.8-5.95,42.57,1.37-14.08-4.64-28.27-5.73-42.57-1.37h0Z"/><path class="cls-1" d="m37.15,45.32c14.16-12.9,32.11-19.14,50.96-13.86,7.59,2.13,13.82,7.32,20.91,10.45,9.41,3.96,20.19,3.72,29.87.7,4.92-1.5,9.67-3.68,14.55-5.54,0,0,.08.18.08.18-4.59,2.46-9.17,4.98-14.12,6.85-9.87,3.79-21.44,4.06-31.15-.47-7.28-3.33-12.79-9.05-20.35-11.52-12.45-3.96-25.89-.02-37.28,5.44-4.62,2.28-9.03,5.01-13.35,7.94,0,0-.12-.16-.12-.16h0Z"/><path class="cls-1" d="m106.48,41.73c-7.85,4.65-16.49,8.56-25.76,9.01-9.17.49-18.54-1.65-26.56-6.06,10.62,3.58,21.99,5.4,33.05,3.26,6.68-1.19,12.87-3.89,19.27-6.2h0Z"/><path class="cls-1" d="m218.68,35.49c-10.61,9.9-25.07,16.49-39.84,15.56-4.84-.2-9.75-.84-14.32-2.67-4.56-1.69-8.67-4.49-12.82-6.9-4.1-2.45-8.51-4.12-13.14-4.93-4.64-.86-9.43-.91-14.11-.29-4.71.62-9.31,2.07-13.86,3.72l-.08-.18c12.92-7.24,29.51-8.4,42.15.07,4.13,2.53,7.91,5.48,12.29,7.51,13.33,6.37,28.76,1.6,41.25-4.62,4.25-2.2,8.34-4.72,12.36-7.42,0,0,.12.16.12.16h0Z"/><path class="cls-1" d="m53.33,34.87c-6.53-2.36-12.81-5.21-19.61-6.53-11.26-2.35-22.89-.55-33.72,3.11,8.19-4.49,17.78-6.63,27.12-6.03,9.47.57,18.18,4.73,26.2,9.44h0Z"/><path class="cls-1" d="m164.39,40.8c-8.73-5.94-18.11-10.88-28.34-13.57-5.09-1.33-10.42-1.86-15.66-1.24-1.61.27-3.58.59-5.14,1.12-5.69,1.6-10.38,5.1-15.36,8.31-8.06,5.61-17.85,7.87-27.59,6.34-4.77-.72-9.33-2.3-13.58-4.4l.08-.19c4.49,1.49,9.05,2.66,13.68,3.02,4.62.36,9.3.08,13.76-.95,9.33-1.84,16.35-8.98,25.32-11.98,9.14-2.88,19-2.82,28.29-.65,6.95,1.85,13.4,5.26,19.16,9.49,1.9,1.43,3.74,2.93,5.49,4.54,0,0-.12.16-.12.16h0Z"/></g></svg>