<?xml version="1.0" encoding="UTF-8"?><svg id="Layer_2" xmlns="http://www.w3.org/2000/svg" viewBox="0 0 107.66 59.69"><defs><style>.cls-1{fill:#fff;}</style></defs><g id="Layer_1-2"><path class="cls-1" d="m15.84,59.49c-.84,0-1.63.01-2.41,0-.44-.01-.37-.37-.37-.65,0-2.49,0-4.98,0-7.46,0-.45,0-.89-.15-1.38-.36.86-.75,1.71-1.09,2.57-.82,2.06-1.63,4.12-2.41,6.19-.15.41-.35.58-.81.58-1.41,0-1.4.02-1.92-1.31-1.03-2.64-2.07-5.28-3.11-7.91-.03-.07-.08-.14-.26-.2,0,.44,0,.87,0,1.31,0,2.47.02,4.93.01,7.4,0,.86-.02.86-.85.87-.62,0-1.24,0-1.92,0,0-.32,0-.6,0-.88,0-4.27.02-8.54,0-12.81,0-.58.18-.71.71-.68.68.04,1.37.04,2.05,0,.6-.05.88.18,1.1.73.98,2.53,2.01,5.04,3.02,7.55.23.56.49,1.12.8,1.84.15-.38.23-.58.31-.79,1.15-2.86,2.31-5.72,3.44-8.59.22-.56.53-.77,1.11-.74.72.04,1.45.03,2.18,0,.44-.01.57.17.57.59-.01,4.33-.01,8.66-.01,13,0,.23,0,.45,0,.78Z"/><path class="cls-1" d="m0,22.62c.8,0,1.51-.03,2.2.02.16.01.4.24.44.4.8,3.1,1.57,6.21,2.35,9.32.04.14.1.28.3.43.21-.78.44-1.56.64-2.35.63-2.42,1.27-4.84,1.89-7.26.11-.41.31-.58.74-.56.5.03,1-.05,1.49.02.22.03.54.27.6.47.77,2.81,1.49,5.64,2.23,8.46.1.38.16.76.39,1.18.09-.24.21-.48.28-.72.71-2.76,1.42-5.53,2.13-8.29.05-.2.11-.4.15-.6.07-.36.27-.52.65-.51.63.02,1.26,0,2,0-.32,1.28-.6,2.39-.89,3.51-.88,3.38-1.76,6.76-2.62,10.15-.13.53-.34.79-.93.72-.43-.05-.87-.01-1.3.03-.55.05-.82-.18-.96-.71-.68-2.58-1.39-5.15-2.09-7.72-.1-.38-.23-.76-.35-1.14-.06,0-.13,0-.19,0-.06.13-.13.26-.17.39-.75,2.8-1.5,5.59-2.22,8.39-.16.62-.47.82-1.09.8-1.92-.07-1.93-.05-2.42-1.9-1.05-3.96-2.08-7.92-3.11-11.88-.04-.16-.06-.31-.12-.63Z"/><path class="cls-1" d="m10.66,4.24c-.72,0-1.4.03-2.08-.02-.18-.01-.44-.21-.51-.38-.67-1.64-3.34-2.04-4.49-.66-.5.6-.39,1.44.36,1.86.79.45,1.65.77,2.48,1.14.88.4,1.83.71,2.64,1.23,2.51,1.62,2.37,5.13-.27,6.52-2.16,1.13-4.39,1.13-6.54-.07-1.19-.66-1.88-1.71-2.11-3.06-.08-.47.06-.65.54-.64.58.02,1.16-.04,1.74.01.19.01.49.21.53.37.3,1.31,1.29,1.74,2.44,1.81.63.04,1.33-.13,1.91-.4,1.04-.48,1.18-1.91.24-2.56-.67-.46-1.44-.8-2.21-1.07-1.2-.42-2.4-.8-3.41-1.59C.1,5.32.02,2.87,1.74,1.35c1.92-1.7,5.43-1.81,7.46-.23.95.74,1.59,2.06,1.46,3.12Z"/><path class="cls-1" d="m34.62,35.86c-.06.04-.09.05-.09.06q-.12,1.11-1.32,1.1-1.36-.01-1.36-1.34c0-4.08,0-8.17,0-12.25q0-.8.83-.8c.27,0,.54,0,.81,0,1.08-.02,1.08-.02,1.08,1.09,0,1.08-.02,2.15-.03,3.23,0,.15.03.3.05.53.4-.33.69-.66,1.05-.87,1.8-1.04,4.2-.29,5.17,1.69,1.14,2.31,1.1,4.66-.13,6.92-1.09,2-4.11,2.77-5.8.82-.07-.08-.18-.14-.26-.19Zm-.37-4.31c.19.72.32,1.52.62,2.25.34.8,1.01,1.25,1.93,1.18.92-.08,1.55-.58,1.83-1.45.37-1.1.43-2.24.18-3.37-.22-.98-1-1.73-1.83-1.8-1.09-.1-1.87.35-2.3,1.41-.21.53-.28,1.11-.44,1.78Z"/><path class="cls-1" d="m83.96,5.05c2.16-1.87,4.47-1.79,5.89.17.41.56.74,1.22.91,1.89.48,1.82.35,3.62-.45,5.34-.8,1.72-2.9,2.68-4.64,2.07-.58-.2-1.08-.65-1.64-.99.02-.02-.04,0-.04.03,0,1.06.06.97-1.04.98-.37,0-.75-.02-1.12,0-.45.04-.58-.16-.57-.58,0-4.46,0-8.92,0-13.37,0-.34.14-.44.44-.44.6,0,1.2.02,1.81-.01.4-.02.49.15.49.52-.02,1.22-.01,2.45-.02,3.67,0,.2,0,.4,0,.73Zm4.6,3.86c-.25-.72-.39-1.52-.78-2.17-.76-1.28-2.89-1.22-3.53.12-.71,1.49-.73,3.05.03,4.55.38.75,1.07,1.06,1.91,1.05.81-.02,1.42-.41,1.69-1.14.28-.74.44-1.53.67-2.4Z"/><path class="cls-1" d="m29.93,32.36h-7.23c.01.91.32,1.62.97,2.16.98.81,2.73.51,3.37-.58.2-.34.42-.48.81-.35.59.19,1.18.36,1.82.56-.47,1.6-1.53,2.54-3.04,2.84-.95.19-2,.2-2.95,0-2.95-.64-3.83-3.25-3.72-5.56.05-1.13.32-2.2.97-3.17,1.15-1.72,3.23-2.49,5.36-1.97,2.03.5,3.28,1.97,3.49,4.1.06.63.1,1.27.16,1.98Zm-7.17-1.81c1.41,0,2.77,0,4.13,0,.35,0,.37-.23.3-.52-.23-.98-1.14-1.66-2.21-1.64-1.1.03-2.05.91-2.22,2.17Z"/><path class="cls-1" d="m62.98,56.6c-.62,1.57-1.62,2.52-3.15,2.89-2.23.55-4.46-.14-5.64-1.8-1.74-2.45-1.17-6.78,1.36-8.34,3.1-1.93,7.06-.12,7.47,3.5.06.53.06,1.07.1,1.61.03.32-.09.45-.42.44-2.05,0-4.11,0-6.16,0-.62,0-.7.1-.51.68.41,1.27,1.37,1.93,2.69,1.84.69-.05,1.24-.37,1.52-1.01.18-.41.41-.51.83-.38.6.2,1.22.36,1.91.57Zm-7.06-3.56c1.48,0,2.87,0,4.25-.02.1,0,.32-.28.29-.37-.13-.4-.25-.85-.52-1.16-.65-.74-1.53-.78-2.41-.52-.94.27-1.31,1.05-1.61,2.07Z"/><path class="cls-1" d="m100.48,9.94c-.06,1.35.86,2.39,2.08,2.46.96.06,1.82-.06,2.34-1.02.07-.14.36-.27.5-.24.66.15,1.31.35,1.95.54-.37,1.62-1.83,2.82-3.63,2.98-1.12.1-2.24.06-3.28-.48-2.05-1.06-2.83-2.84-2.73-5.03.04-.91.23-1.87.6-2.7.9-2.07,3.09-3.12,5.4-2.73,2.15.36,3.56,1.94,3.8,4.3.06.61.1,1.23.15,1.93h-7.19Zm.03-1.87c1.3,0,2.56,0,3.81,0,.68,0,.79-.16.56-.82-.34-.97-1.34-1.52-2.44-1.36-1.1.16-1.88,1-1.93,2.18Z"/><path class="cls-1" d="m76.18,13.32c-1.04,1.31-2.31,1.56-3.72,1.27-1.5-.31-2.47-1.45-2.56-2.96-.08-1.27.75-2.51,2.12-2.96.92-.3,1.89-.42,2.84-.62.06-.01.13,0,.19-.02.46-.13,1.07-.07,1.1-.77.02-.66-.54-1.33-1.17-1.41-.79-.1-1.5.09-1.98.77-.24.34-.49.45-.89.36-.4-.09-.82-.11-1.23-.17-.74-.11-.8-.24-.42-.91.74-1.32,1.93-2.01,3.38-2.14.87-.08,1.79,0,2.64.22,1.37.35,2.28,1.32,2.35,2.73.13,2.44.08,4.89.1,7.33,0,.36-.21.51-.56.51-.48,0-.96-.02-1.43,0-.5.03-.76-.13-.66-.68.02-.13-.04-.27-.1-.54Zm.12-2.92c-.14-.23-.32-.66-.41-.65-.85.15-1.71.33-2.52.6-.54.18-.78.68-.7,1.25.09.61.49.94,1.09,1.03,1.43.21,2.45-.69,2.55-2.24Z"/><path class="cls-1" d="m42.39,6.65c.28-1.08.93-1.8,1.79-2.29,1.63-.94,3.34-.91,5.03-.22,1.07.44,1.78,1.34,1.82,2.48.08,2.6.03,5.21.03,7.9-.7,0-1.48.01-2.26-.02-.1,0-.22-.21-.27-.34-.06-.19-.06-.4-.1-.68-.17.12-.3.18-.39.28-1.25,1.37-3.69,1.09-4.94,0-1.43-1.23-1.23-3.7.38-4.74,1.11-.71,2.38-.79,3.62-.99.1-.02.21,0,.31-.03.48-.08.96-.14.99-.79.03-.59-.36-1.19-.9-1.35-.96-.29-1.85.06-2.4.92-.08.12-.25.27-.36.26-.77-.11-1.53-.26-2.34-.4Zm5.84,3.02c-.84.2-1.65.36-2.43.6-.7.21-1.02.71-.94,1.28.09.63.59,1.08,1.31,1.09,1.46.02,2.64-.82,2.07-2.97Z"/><path class="cls-1" d="m24.25,58.28c-.72.81-1.52,1.28-2.48,1.37-1.35.12-2.54-.31-3.33-1.41-.73-1.02-.77-2.18-.15-3.29.53-.96,1.47-1.37,2.49-1.59.79-.17,1.6-.25,2.39-.4.39-.07.89-.05.95-.61.06-.55-.14-1.02-.64-1.32-.77-.46-1.94-.24-2.45.52-.3.46-.62.52-1.1.42-.44-.1-.9-.17-1.35-.21-.41-.03-.5-.19-.35-.56.59-1.43,1.76-2.14,3.17-2.4.83-.16,1.74-.12,2.59.02,1.74.29,2.76,1.38,2.85,3.26.12,2.44.03,4.88.03,7.41-.79,0-1.57.02-2.34-.02-.12,0-.28-.26-.33-.42-.05-.19.02-.4.05-.75Zm-.2-3.65c-.91.21-1.79.35-2.63.62-.61.2-.91.82-.8,1.38.09.52.59.9,1.23.94,1.67.1,2.52-.99,2.2-2.95Z"/><path class="cls-1" d="m19.62,13.55c-.81.35-1.54.83-2.34.99-2.21.44-4.11-1.02-4.21-3.27-.11-2.36-.09-4.73-.1-7.09,0-.14.27-.4.42-.42.6-.05,1.2,0,1.8-.02.41-.02.54.15.53.55-.02,1.68-.03,3.36-.02,5.04,0,.52.04,1.04.12,1.55.13.82.7,1.36,1.43,1.42.93.08,1.68-.29,1.89-1.15.21-.85.3-1.75.33-2.63.05-1.41.03-2.82,0-4.23,0-.44.12-.59.56-.56.56.03,1.12,0,1.68,0,.36,0,.52.13.52.51,0,3.28,0,6.55.01,9.83,0,.39-.14.51-.52.48-.45-.03-.91-.04-1.37,0-.53.04-.79-.15-.73-.7.01-.12-.01-.24-.02-.29Z"/><path class="cls-1" d="m58.75,3.79c.75,0,1.46-.02,2.16.02.13,0,.33.22.36.37.06.27.02.57.02.97.19-.17.31-.26.42-.37,1.13-1.12,2.47-1.38,3.95-.88,1.47.5,2.12,1.67,2.19,3.1.11,2.34.07,4.68.1,7.03,0,.35-.13.53-.51.52-.56-.02-1.12-.02-1.68,0-.41.01-.54-.15-.53-.55.02-1.87.01-3.73,0-5.6,0-.37-.03-.75-.12-1.11-.2-.85-.76-1.33-1.55-1.36-.95-.04-1.61.35-1.85,1.23-.17.63-.25,1.3-.26,1.96-.04,1.55-.04,3.11,0,4.66.01.62-.23.82-.8.77-.33-.03-.66,0-1,0-.93,0-.93,0-.94-.9,0-3.09,0-6.18-.01-9.27,0-.16.02-.33.04-.59Z"/><path class="cls-1" d="m31.92,50.03c.16-.15.31-.29.45-.43,1.16-1.05,2.5-1.28,3.93-.71,1.35.54,2,1.67,2.06,3.07.1,2.34.09,4.68.13,7.02,0,.36-.11.53-.5.52-.54-.02-1.08-.03-1.62,0-.49.03-.66-.16-.65-.65.01-1.84,0-3.69,0-5.53,0-.35-.03-.7-.1-1.05-.16-.82-.61-1.29-1.3-1.39-.84-.12-1.6.2-1.94.92-.2.44-.35.94-.36,1.42-.05,1.8-.02,3.6-.03,5.41,0,.86,0,.86-.86.85-.41,0-.83-.04-1.24,0-.53.04-.68-.19-.67-.69.01-2.98,0-5.97,0-8.95,0-1.21-.24-1.12,1.12-1.12.06,0,.12,0,.19,0q1.11,0,1.26,1.08c0,.05.06.1.12.22Z"/><path class="cls-1" d="m92.67,54.35c-.14,1.5-.51,2.88-1.62,3.96-2.67,2.61-7.18,1.36-8.14-2.24-.4-1.5-.39-3,.18-4.45.8-2.03,2.78-3.18,5.03-2.98,2.1.19,3.82,1.68,4.28,3.76.14.64.18,1.31.27,1.96Zm-2.65-.23c-.11-.63-.14-1.28-.35-1.88-.56-1.62-2.61-1.96-3.71-.65-.98,1.18-.97,3.93.03,5.08.84.97,2.13,1.06,3.09.2.83-.74.87-1.74.94-2.76Z"/><path class="cls-1" d="m33.11,6.67c-.46.07-.83.1-1.19.18-.72.16-1.29.19-1.78-.6-.42-.69-1.93-.67-2.57-.13-.5.43-.53,1.03.05,1.34.57.32,1.22.5,1.85.7.63.2,1.3.3,1.91.53,1.14.42,1.89,1.23,1.95,2.48.05,1.13-.45,2.03-1.41,2.67-2.2,1.46-5.71,1.04-7.21-.88-.88-1.13-.77-1.44.61-1.65.27-.04.54-.12.8-.08.24.04.56.14.68.33.68,1.07,2.04,1.49,3.14.84.27-.16.54-.57.53-.85-.02-.29-.32-.7-.6-.81-.65-.26-1.36-.34-2.03-.55-.63-.2-1.25-.43-1.84-.73-1.06-.54-1.58-1.46-1.54-2.64.04-1.16.65-2.02,1.66-2.52,1.64-.81,3.37-.88,5.06-.18,1.09.45,1.68,1.35,1.94,2.55Z"/><path class="cls-1" d="m64.61,56.44c.77-.08,1.54-.18,2.32-.23.13,0,.33.21.42.36.58,1.01,2.45,1.39,3.35.66.52-.42.45-1.24-.17-1.48-.63-.24-1.33-.32-1.97-.54-.81-.29-1.65-.57-2.38-1.01-1.48-.9-1.71-2.85-.56-4.15,1.2-1.35,2.79-1.48,4.45-1.36,1.58.11,2.76.8,3.35,2.34.07.19.11.38.18.64-.78.1-1.49.21-2.2.25-.14,0-.33-.2-.44-.36-.67-.9-1.45-1.13-2.5-.69-.42.17-.89.44-.76.91.1.37.48.8.83.95.72.29,1.52.4,2.27.61.5.14,1.01.26,1.46.49,1.86.94,2.09,3.38.48,4.7-1.89,1.54-5.56,1.49-7.13-.17-.46-.49-.75-1.14-1.12-1.72l.13-.2Z"/><path class="cls-1" d="m46.8,50.75h-1.44v-1.99h1.4c.06-.4.1-.72.15-1.04.22-1.4,1.07-2.38,2.47-2.6.78-.12,1.6-.02,2.4.04.12,0,.3.34.29.51-.03.41-.12.82-.26,1.21-.06.17-.29.35-.47.39-.28.06-.6-.05-.86.02-.27.08-.59.25-.72.48-.4.67-.2.97.57.97.37,0,.75,0,1.12.01.06,0,.12.03.21.06v1.93h-2.08c0,1.57,0,3.04,0,4.5,0,1.22-.01,2.45,0,3.67,0,.42-.12.6-.57.58-.54-.03-1.08-.03-1.62,0-.48.03-.6-.17-.6-.61.01-2.49,0-4.97,0-7.46,0-.19,0-.37,0-.67Z"/><path class="cls-1" d="m79.12,48.73c.54,0,.97.01,1.41,0,.35-.01.46.12.47.47.03,1.53.04,1.53-1.49,1.57-.1,0-.2.02-.35.03-.02.17-.05.32-.05.48,0,1.55-.02,3.11,0,4.66.01,1.2.18,1.37,1.37,1.37.36,0,.53.11.57.47.06.53.16,1.05.25,1.57-1.73.59-3.38.19-4.32-1.01-.48-.63-.62-1.35-.62-2.1,0-1.53.03-3.06.05-4.6.01-.85.01-.88-.83-.87-.48,0-.64-.18-.6-.62.01-.16.02-.33.03-.5.05-.88.05-.9.93-.92.38,0,.52-.12.48-.51-.05-.43-.02-.87-.06-1.3-.04-.39.14-.52.49-.52.62,0,1.25-.04,1.86,0,.15.01.38.27.4.43.05.61.02,1.23.02,1.89Z"/><path class="cls-1" d="m35.84,3.68V1.46c.85,0,1.67-.01,2.49.02.1,0,.25.24.27.38.03.41.04.83,0,1.24-.05.54.2.68.69.67.38,0,1.05-.01,1.09.12.14.52.11,1.1.08,1.65,0,.09-.31.22-.49.24-1.35.15-1.35.14-1.35,1.5,0,1.28,0,2.57,0,3.85,0,.97.32,1.29,1.27,1.23.4-.03.64.07.66.51,0,.14.03.29.07.43.29,1.29.3,1.21-1.05,1.34-1.69.17-3.67-.7-3.7-3.36-.01-1.57,0-3.15-.01-4.72,0-.81-.01-.82-.79-.73-.38.05-.55-.08-.52-.46,0-.08,0-.17,0-.25q0-1.27,1.28-1.43Z"/><path class="cls-1" d="m95.73.17c0,4.19,0,8.29,0,12.39,0,.46,0,.91.01,1.37,0,.43-.17.65-.64.62-.48-.03-.96-.03-1.43,0-.51.03-.7-.2-.7-.7.02-1.37,0-2.74,0-4.1,0-2.96.02-5.93,0-8.89,0-.57.19-.72.72-.69.64.04,1.28,0,2.03,0Z"/><path class="cls-1" d="m56.31,9.14c0,1.6-.01,3.19,0,4.79,0,.46-.15.64-.61.62-.54-.02-1.08,0-1.62,0-.39,0-.55-.17-.55-.57,0-3.21,0-6.42,0-9.63,0-.45.18-.58.59-.56.54.02,1.08.02,1.62,0,.43-.02.58.14.57.58-.02,1.6,0,3.19,0,4.79Z"/><path class="cls-1" d="m40.84,54.07c0-1.6.02-3.19,0-4.79,0-.44.14-.59.57-.56.58.03,1.16.02,1.74,0,.35,0,.46.14.46.48,0,3.23,0,6.47,0,9.7,0,.42-.13.6-.57.58-.54-.03-1.08-.03-1.62,0-.44.03-.58-.14-.57-.57.02-1.62,0-3.23,0-4.85,0,0-.01,0-.02,0Z"/><path class="cls-1" d="m42.27,47.77c-.91,0-1.54-.59-1.54-1.43,0-.73.68-1.33,1.5-1.34.82,0,1.51.64,1.5,1.41-.02.79-.63,1.37-1.46,1.36Z"/><path class="cls-1" d="m56.42,1.38c.01.77-.62,1.43-1.41,1.45-.79.03-1.58-.64-1.6-1.35-.02-.78.65-1.42,1.49-1.44.8-.02,1.5.6,1.51,1.33Z"/></g></svg>